<svg xmlns="http://www.w3.org/2000/svg" width="130.184" height="31.001" viewBox="0 0 130.184 31.001"><g transform="translate(-1041.947 -254.835)"><g transform="translate(1041.947 254.835)"><path d="M1054.921,279.029a11.468,11.468,0,0,1-5.754-1.4,9.956,9.956,0,0,1-3.843-3.843,11.316,11.316,0,0,1-1.377-5.651,12.3,12.3,0,0,1,1.418-6.1,10.06,10.06,0,0,1,3.7-3.863,9.411,9.411,0,0,1,4.829-1.336,9.815,9.815,0,0,1,3.678.7,9.39,9.39,0,0,1,3.124,2.055,10.364,10.364,0,0,1,2.2,3.206,10.7,10.7,0,0,1,.863,4.192,1.519,1.519,0,0,1-.534,1.089,1.7,1.7,0,0,1-1.151.432h-16.234l-.74-2.836h15.824l-.657.576v-.9a5.387,5.387,0,0,0-1.131-2.9,6.68,6.68,0,0,0-5.24-2.528,6.954,6.954,0,0,0-2.445.452,6.18,6.18,0,0,0-2.178,1.4,6.714,6.714,0,0,0-1.542,2.466,10.346,10.346,0,0,0-.575,3.658,8.762,8.762,0,0,0,.966,4.193,7.3,7.3,0,0,0,2.692,2.857,7.527,7.527,0,0,0,3.987,1.048,7.62,7.62,0,0,0,2.527-.37,7.381,7.381,0,0,0,1.829-.925,8.566,8.566,0,0,0,1.315-1.13,1.815,1.815,0,0,1,1.028-.37,1.4,1.4,0,0,1,1.027.411,1.349,1.349,0,0,1,.411.986,1.647,1.647,0,0,1-.7,1.275,9.925,9.925,0,0,1-3.124,2.219A9.578,9.578,0,0,1,1054.921,279.029Z" transform="translate(-1043.448 -256.336)" fill="#212441"/><path d="M1053.42,278.027a12.014,12.014,0,0,1-6-1.462,10.5,10.5,0,0,1-4.032-4.032,11.859,11.859,0,0,1-1.441-5.9,12.842,12.842,0,0,1,1.482-6.348,10.6,10.6,0,0,1,3.882-4.05,9.945,9.945,0,0,1,5.081-1.4,10.357,10.357,0,0,1,3.864.735,9.935,9.935,0,0,1,3.289,2.163,10.9,10.9,0,0,1,2.3,3.358,11.242,11.242,0,0,1,.906,4.386v.04a2.009,2.009,0,0,1-.7,1.433,2.186,2.186,0,0,1-1.479.555H1046.21a7.8,7.8,0,0,0,.848,2.842,6.842,6.842,0,0,0,2.511,2.665,7.073,7.073,0,0,0,3.728.975,7.169,7.169,0,0,0,2.362-.341,6.942,6.942,0,0,0,1.706-.861,8.085,8.085,0,0,0,1.238-1.063l.081-.071a2.306,2.306,0,0,1,1.312-.459,1.884,1.884,0,0,1,1.379.557,1.836,1.836,0,0,1,.558,1.339,2.112,2.112,0,0,1-.852,1.635,10.485,10.485,0,0,1-3.254,2.308A10.112,10.112,0,0,1,1053.42,278.027Zm-10.3-13.716a14.954,14.954,0,0,0-.173,2.325,10.876,10.876,0,0,0,1.313,5.407,9.511,9.511,0,0,0,3.654,3.654,11.033,11.033,0,0,0,5.508,1.332,9.123,9.123,0,0,0,3.976-.9,9.464,9.464,0,0,0,2.969-2.1l.053-.051a1.171,1.171,0,0,0,.517-.889.848.848,0,0,0-.266-.634.894.894,0,0,0-.674-.265,1.3,1.3,0,0,0-.7.253,9.2,9.2,0,0,1-1.352,1.155,7.928,7.928,0,0,1-1.952.989,8.153,8.153,0,0,1-2.694.4,8.053,8.053,0,0,1-4.246-1.12,7.825,7.825,0,0,1-2.873-3.048,8.829,8.829,0,0,1-.971-3.312h-1.256Zm3.033,2.2h14.42a1.2,1.2,0,0,0,.823-.308,1.014,1.014,0,0,0,.363-.727,10.241,10.241,0,0,0-.82-3.977,9.918,9.918,0,0,0-2.093-3.053,8.937,8.937,0,0,0-2.959-1.947,9.365,9.365,0,0,0-3.493-.663,8.963,8.963,0,0,0-4.578,1.267,9.611,9.611,0,0,0-3.516,3.677,10.18,10.18,0,0,0-1.063,2.895h2.193a8.26,8.26,0,0,1,.332-1.117,7.234,7.234,0,0,1,1.659-2.646,6.705,6.705,0,0,1,2.353-1.508,7.283,7.283,0,0,1,5.732.223,7.135,7.135,0,0,1,2.518,2.009,5.865,5.865,0,0,1,1.224,3.039h1.5l-2.483,2.174v-1.176h-12a12.537,12.537,0,0,0-.111,1.72C1046.15,266.429,1046.151,266.469,1046.151,266.508Zm-1.429,0h.432c0-.039,0-.079,0-.118a13.747,13.747,0,0,1,.1-1.72h-1.013Zm1.732-2.836h11.787a4.857,4.857,0,0,0-1-2.417,6.141,6.141,0,0,0-2.167-1.731,6.282,6.282,0,0,0-4.953-.188,5.71,5.71,0,0,0-2,1.286,6.25,6.25,0,0,0-1.424,2.286A7.047,7.047,0,0,0,1046.454,263.672Z" transform="translate(-1041.947 -254.835)" fill="#212441"/></g><g transform="translate(1064.4 254.835)"><path d="M1144.557,256.835a7.419,7.419,0,0,1,4.4,1.151,6.236,6.236,0,0,1,2.281,3.083,13.1,13.1,0,0,1,.678,4.357v11.508a1.661,1.661,0,0,1-.473,1.192,1.558,1.558,0,0,1-1.171.493,1.541,1.541,0,0,1-1.192-.493,1.7,1.7,0,0,1-.452-1.192V265.507a8.11,8.11,0,0,0-.473-2.836,4.164,4.164,0,0,0-1.583-2.034,5.151,5.151,0,0,0-2.959-.76,6.669,6.669,0,0,0-3.165.76,6.258,6.258,0,0,0-2.3,2.034,4.946,4.946,0,0,0-.863,2.836v11.426a1.661,1.661,0,0,1-.473,1.192,1.638,1.638,0,0,1-2.343,0,1.658,1.658,0,0,1-.473-1.192V259.054a1.64,1.64,0,0,1,.473-1.212,1.591,1.591,0,0,1,1.172-.473,1.575,1.575,0,0,1,1.192.473,1.683,1.683,0,0,1,.452,1.212v2.877l-.822.9a5.81,5.81,0,0,1,.945-2.158,8.59,8.59,0,0,1,1.85-1.953,9.446,9.446,0,0,1,2.466-1.377A7.944,7.944,0,0,1,1144.557,256.835Z" transform="translate(-1133.495 -256.336)" fill="#212441"/><path d="M1148.769,277.616a2.027,2.027,0,0,1-1.56-.655,2.19,2.19,0,0,1-.583-1.529V264.006a7.657,7.657,0,0,0-.442-2.663,3.644,3.644,0,0,0-1.4-1.8,4.7,4.7,0,0,0-2.677-.673,6.206,6.206,0,0,0-2.932.7,5.794,5.794,0,0,0-2.122,1.873,4.418,4.418,0,0,0-.777,2.556v11.426a2.152,2.152,0,0,1-.611,1.537,2.137,2.137,0,0,1-3.063,0,2.15,2.15,0,0,1-.611-1.537V257.553a2.131,2.131,0,0,1,.619-1.565,2.211,2.211,0,0,1,3.076.007,2.174,2.174,0,0,1,.591,1.558v.35a9.537,9.537,0,0,1,1.168-1.073,10,10,0,0,1,2.6-1.449,8.477,8.477,0,0,1,3.013-.546,7.929,7.929,0,0,1,4.688,1.244,6.757,6.757,0,0,1,2.461,3.323,13.661,13.661,0,0,1,.706,4.522v11.508a2.152,2.152,0,0,1-.611,1.537A2.047,2.047,0,0,1,1148.769,277.616Zm-6.659-19.739a5.655,5.655,0,0,1,3.241.848A4.674,4.674,0,0,1,1147.12,261a8.647,8.647,0,0,1,.5,3.009v11.426a1.2,1.2,0,0,0,.32.854,1.04,1.04,0,0,0,.825.332,1.056,1.056,0,0,0,.812-.34,1.169,1.169,0,0,0,.333-.847V263.924a12.671,12.671,0,0,0-.65-4.191,5.779,5.779,0,0,0-2.1-2.843,6.979,6.979,0,0,0-4.107-1.057,7.479,7.479,0,0,0-2.659.482,8.977,8.977,0,0,0-2.336,1.3,8.134,8.134,0,0,0-1.744,1.839l-.037.055v1.111l-2.145,2.359.334-1.742a6.09,6.09,0,0,1,.813-2.019v-1.668a1.193,1.193,0,0,0-.314-.868,1.088,1.088,0,0,0-.831-.318,1.1,1.1,0,0,0-.819.327,1.153,1.153,0,0,0-.327.86v17.879a1.168,1.168,0,0,0,.334.847,1.14,1.14,0,0,0,1.623,0,1.171,1.171,0,0,0,.333-.847V264.006a5.459,5.459,0,0,1,.949-3.115,6.785,6.785,0,0,1,2.482-2.2A7.194,7.194,0,0,1,1142.11,257.876Z" transform="translate(-1131.994 -254.835)" fill="#212441"/></g><g transform="translate(1084.22 254.998)"><path d="M1215.127,257.491a1.835,1.835,0,0,1,.945.267,1.543,1.543,0,0,1,.657.8l6.823,15.988-.658.329,6.905-16.317a1.52,1.52,0,0,1,1.562-1.069,1.538,1.538,0,0,1,1.068.411,1.379,1.379,0,0,1,.452,1.068,1.563,1.563,0,0,1-.062.452c-.041.137-.089.274-.144.411l-7.932,18.208a1.582,1.582,0,0,1-1.438,1.069,1.456,1.456,0,0,1-1.007-.205,1.8,1.8,0,0,1-.719-.863l-7.932-18.208c-.028-.082-.061-.2-.1-.349a1.781,1.781,0,0,1-.062-.473,1.55,1.55,0,0,1,.431-1.027A1.526,1.526,0,0,1,1215.127,257.491Z" transform="translate(-1212.984 -256.99)" fill="#212441"/><path d="M1221.568,278.124a1.951,1.951,0,0,1-1.03-.3,2.3,2.3,0,0,1-.918-1.093l-7.947-18.245q-.044-.133-.111-.377a2.3,2.3,0,0,1-.079-.6,2.037,2.037,0,0,1,.555-1.356,2.009,2.009,0,0,1,1.588-.663,2.337,2.337,0,0,1,1.2.336,2.037,2.037,0,0,1,.87,1.051l6.1,14.282,6.05-14.3a2,2,0,0,1,2.039-1.372h0a2.017,2.017,0,0,1,1.384.539,1.866,1.866,0,0,1,.616,1.438,2.066,2.066,0,0,1-.083.6c-.044.149-.1.3-.158.453l-7.938,18.222a2.372,2.372,0,0,1-2.132,1.386Zm-8.956-19.971,7.923,18.187a1.312,1.312,0,0,0,.521.636.971.971,0,0,0,.673.139l.055-.005a1.086,1.086,0,0,0,1-.771l7.932-18.206c.044-.11.087-.234.123-.355a1.086,1.086,0,0,0,.041-.309.882.882,0,0,0-.289-.7,1.149,1.149,0,0,0-1.833.477l-6.428,15.189.362.848-2.287,1.142.841-1.988-6.479-15.183a1.068,1.068,0,0,0-.453-.568,1.332,1.332,0,0,0-.691-.2,1.03,1.03,0,0,0-.837.323,1.06,1.06,0,0,0-.308.7,1.3,1.3,0,0,0,.044.341C1212.559,257.978,1212.588,258.079,1212.612,258.153Z" transform="translate(-1211.483 -255.488)" fill="#212441"/></g><g transform="translate(1104.412 254.835)"><path d="M1305.439,279.029a11.468,11.468,0,0,1-5.754-1.4,9.954,9.954,0,0,1-3.843-3.843,11.315,11.315,0,0,1-1.377-5.651,12.3,12.3,0,0,1,1.418-6.1,10.059,10.059,0,0,1,3.7-3.863,9.412,9.412,0,0,1,4.83-1.336,9.816,9.816,0,0,1,3.678.7,9.388,9.388,0,0,1,3.124,2.055,10.363,10.363,0,0,1,2.2,3.206,10.7,10.7,0,0,1,.863,4.192,1.521,1.521,0,0,1-.534,1.089,1.694,1.694,0,0,1-1.151.432h-16.235l-.74-2.836h15.823l-.658.576v-.9a5.382,5.382,0,0,0-1.13-2.9,6.68,6.68,0,0,0-5.24-2.528,6.956,6.956,0,0,0-2.446.452,6.181,6.181,0,0,0-2.178,1.4,6.713,6.713,0,0,0-1.541,2.466,10.34,10.34,0,0,0-.576,3.658,8.761,8.761,0,0,0,.966,4.193,7.3,7.3,0,0,0,2.692,2.857,7.526,7.526,0,0,0,3.986,1.048,7.621,7.621,0,0,0,2.528-.37,7.391,7.391,0,0,0,1.829-.925,8.529,8.529,0,0,0,1.315-1.13,1.817,1.817,0,0,1,1.028-.37,1.4,1.4,0,0,1,1.027.411,1.349,1.349,0,0,1,.411.986,1.646,1.646,0,0,1-.7,1.275,9.925,9.925,0,0,1-3.123,2.219A9.579,9.579,0,0,1,1305.439,279.029Z" transform="translate(-1293.966 -256.336)" fill="#212441"/><path d="M1303.938,278.027a12.012,12.012,0,0,1-6-1.462,10.5,10.5,0,0,1-4.032-4.032,11.859,11.859,0,0,1-1.441-5.9,12.842,12.842,0,0,1,1.482-6.348,10.6,10.6,0,0,1,3.882-4.05,9.948,9.948,0,0,1,5.082-1.4,10.359,10.359,0,0,1,3.864.735,9.936,9.936,0,0,1,3.289,2.163,10.91,10.91,0,0,1,2.3,3.358,11.24,11.24,0,0,1,.906,4.386v.04a2.008,2.008,0,0,1-.7,1.433,2.187,2.187,0,0,1-1.479.555h-14.361a7.8,7.8,0,0,0,.848,2.842,6.84,6.84,0,0,0,2.511,2.665,7.072,7.072,0,0,0,3.728.975,7.169,7.169,0,0,0,2.362-.341,6.945,6.945,0,0,0,1.706-.861,8.1,8.1,0,0,0,1.239-1.063l.081-.071a2.306,2.306,0,0,1,1.312-.459,1.884,1.884,0,0,1,1.38.557,1.836,1.836,0,0,1,.558,1.339,2.112,2.112,0,0,1-.852,1.635,10.484,10.484,0,0,1-3.254,2.308A10.113,10.113,0,0,1,1303.938,278.027Zm-10.3-13.715a14.969,14.969,0,0,0-.174,2.325,10.88,10.88,0,0,0,1.313,5.407,9.513,9.513,0,0,0,3.655,3.654,11.031,11.031,0,0,0,5.508,1.332,9.124,9.124,0,0,0,3.977-.9,9.461,9.461,0,0,0,2.969-2.1l.053-.051a1.171,1.171,0,0,0,.517-.889.849.849,0,0,0-.265-.634.9.9,0,0,0-.674-.265,1.3,1.3,0,0,0-.7.253,9.19,9.19,0,0,1-1.352,1.155,7.926,7.926,0,0,1-1.952.989,8.153,8.153,0,0,1-2.694.4,8.054,8.054,0,0,1-4.246-1.12,7.826,7.826,0,0,1-2.873-3.048,8.829,8.829,0,0,1-.97-3.312h-1.256Zm3.033,2.2h14.42a1.2,1.2,0,0,0,.822-.308,1.015,1.015,0,0,0,.364-.727,10.239,10.239,0,0,0-.82-3.977,9.922,9.922,0,0,0-2.093-3.053,8.941,8.941,0,0,0-2.959-1.947,9.364,9.364,0,0,0-3.493-.663,8.965,8.965,0,0,0-4.578,1.267,9.614,9.614,0,0,0-3.516,3.677,10.18,10.18,0,0,0-1.063,2.895h2.193a8.3,8.3,0,0,1,.332-1.117,7.231,7.231,0,0,1,1.659-2.646,6.7,6.7,0,0,1,2.353-1.508,7.282,7.282,0,0,1,5.732.223,7.136,7.136,0,0,1,2.518,2.009,5.87,5.87,0,0,1,1.224,3.039h1.5l-2.483,2.174v-1.176h-12a12.6,12.6,0,0,0-.111,1.72C1296.668,266.429,1296.668,266.469,1296.669,266.508Zm-1.429,0h.432c0-.039,0-.079,0-.118a13.771,13.771,0,0,1,.1-1.72h-1.013Zm1.733-2.836h11.787a4.859,4.859,0,0,0-1-2.417,6.143,6.143,0,0,0-2.168-1.731,6.283,6.283,0,0,0-4.954-.188,5.709,5.709,0,0,0-2,1.286,6.248,6.248,0,0,0-1.424,2.286A7.129,7.129,0,0,0,1296.972,263.672Z" transform="translate(-1292.465 -254.835)" fill="#212441"/></g><g transform="translate(1126.865 255.04)"><path d="M1394.992,257.659a9.221,9.221,0,0,1,5.014,1.4,9.9,9.9,0,0,1,3.514,3.864,13.028,13.028,0,0,1,0,11.323,10.073,10.073,0,0,1-3.494,3.9,8.942,8.942,0,0,1-4.953,1.418,8.511,8.511,0,0,1-2.857-.473,10.041,10.041,0,0,1-2.425-1.233,8.394,8.394,0,0,1-1.829-1.706,6.45,6.45,0,0,1-1.069-1.932l.9-.534v12.083a1.7,1.7,0,0,1-.452,1.192,1.541,1.541,0,0,1-1.192.493,1.591,1.591,0,0,1-1.171-.473,1.64,1.64,0,0,1-.473-1.212V259.55a1.64,1.64,0,0,1,.473-1.212,1.713,1.713,0,0,1,2.363,0,1.683,1.683,0,0,1,.452,1.212v3.617l-.617-.329a5.856,5.856,0,0,1,1.007-1.973,7.605,7.605,0,0,1,1.767-1.665,8.971,8.971,0,0,1,5.035-1.541Zm-.37,3.042a6.531,6.531,0,0,0-3.637,1.028,6.975,6.975,0,0,0-2.466,2.795,8.976,8.976,0,0,0-.884,4.069,9.138,9.138,0,0,0,.884,4.069,6.906,6.906,0,0,0,2.466,2.836,6.523,6.523,0,0,0,3.637,1.028,6.426,6.426,0,0,0,3.617-1.028,7.117,7.117,0,0,0,2.466-2.836,8.976,8.976,0,0,0,.9-4.069,8.817,8.817,0,0,0-.9-4.069,7.194,7.194,0,0,0-2.466-2.795A6.434,6.434,0,0,0,1394.622,260.7Z" transform="translate(-1384.012 -257.16)" fill="#212441"/><path d="M1384.654,286.454a2.08,2.08,0,0,1-1.524-.619,2.132,2.132,0,0,1-.619-1.565V258.048a2.13,2.13,0,0,1,.619-1.565,2.211,2.211,0,0,1,3.076.008,2.173,2.173,0,0,1,.591,1.557v.416a8.417,8.417,0,0,1,1.377-1.177,9.463,9.463,0,0,1,5.317-1.629,9.75,9.75,0,0,1,5.28,1.474,10.43,10.43,0,0,1,3.69,4.054,13.521,13.521,0,0,1,0,11.785,10.609,10.609,0,0,1-3.666,4.093,9.472,9.472,0,0,1-5.223,1.5,9.046,9.046,0,0,1-3.023-.5,10.591,10.591,0,0,1-2.545-1.3,9.482,9.482,0,0,1-1.209-1v8.5a2.2,2.2,0,0,1-.583,1.529A2.028,2.028,0,0,1,1384.654,286.454Zm0-29.592a1.1,1.1,0,0,0-.818.326,1.153,1.153,0,0,0-.327.86V284.27a1.152,1.152,0,0,0,.327.86,1.1,1.1,0,0,0,.818.327,1.043,1.043,0,0,0,.825-.332,1.21,1.21,0,0,0,.321-.855V274.6a6.713,6.713,0,0,1-.879-1.716l-.127-.382,1.8-1.065-.026-.054a9.674,9.674,0,0,1-.934-4.288,9.507,9.507,0,0,1,.937-4.292q.083-.168.174-.33l-1.652-.881.108-.386a6.032,6.032,0,0,1,.6-1.4v-1.75a1.194,1.194,0,0,0-.314-.868A1.089,1.089,0,0,0,1384.654,256.862Zm2.143,17.408.058.075a7.93,7.93,0,0,0,1.722,1.6,9.584,9.584,0,0,0,2.306,1.172,8.046,8.046,0,0,0,2.69.444,8.49,8.49,0,0,0,4.682-1.338,9.623,9.623,0,0,0,3.321-3.716,12.53,12.53,0,0,0,0-10.861,9.45,9.45,0,0,0-3.338-3.673,8.769,8.769,0,0,0-4.749-1.321,8.469,8.469,0,0,0-4.753,1.454,7.14,7.14,0,0,0-1.652,1.555q-.155.2-.289.412v2.3a7.43,7.43,0,0,1,2.415-2.569,7.05,7.05,0,0,1,3.909-1.108,6.951,6.951,0,0,1,3.891,1.11,7.723,7.723,0,0,1,2.636,2.984,9.351,9.351,0,0,1,.959,4.3,9.507,9.507,0,0,1-.957,4.292,7.639,7.639,0,0,1-2.638,3.03,6.946,6.946,0,0,1-3.891,1.11,7.044,7.044,0,0,1-3.909-1.108,7.335,7.335,0,0,1-2.415-2.6Zm6.324-14.572a6.07,6.07,0,0,0-3.366.947,6.517,6.517,0,0,0-2.291,2.6,8.526,8.526,0,0,0-.831,3.846,8.688,8.688,0,0,0,.833,3.85,6.45,6.45,0,0,0,2.289,2.637,6.065,6.065,0,0,0,3.366.947,5.967,5.967,0,0,0,3.343-.945,6.658,6.658,0,0,0,2.294-2.642,8.521,8.521,0,0,0,.852-3.846,8.366,8.366,0,0,0-.85-3.842,6.735,6.735,0,0,0-2.3-2.605A5.973,5.973,0,0,0,1393.12,259.7Z" transform="translate(-1382.511 -255.659)" fill="#212441"/></g><path d="M1536.83,268.365a3.632,3.632,0,1,1,2.417-4.532A3.636,3.636,0,0,1,1536.83,268.365Z" transform="translate(-367.967 -4.821)" fill="#5cb39c"/><g transform="translate(1149.802 254.835)"><path d="M1495.773,267.368a6.063,6.063,0,0,1-1.234.238c0,.109.009.216.009.326a8.681,8.681,0,0,1-.966,4.151,7.457,7.457,0,0,1-2.63,2.857,7.235,7.235,0,0,1-7.5,0,7.4,7.4,0,0,1-2.651-2.857,9.453,9.453,0,0,1,0-8.323,7.433,7.433,0,0,1,2.651-2.836,6.939,6.939,0,0,1,3.74-1.048,7.792,7.792,0,0,1,.99.063,6.089,6.089,0,0,1,1.695-2.789,11.306,11.306,0,0,0-2.685-.315,10.435,10.435,0,0,0-9.268,5.384,12.219,12.219,0,0,0,0,11.426,10.435,10.435,0,0,0,9.268,5.384,10.309,10.309,0,0,0,9.248-5.384,11.534,11.534,0,0,0,1.4-5.713,13.554,13.554,0,0,0-.093-1.6A6.02,6.02,0,0,1,1495.773,267.368Z" transform="translate(-1476.005 -256.336)" fill="#212441"/><path d="M1485.689,278.027a10.934,10.934,0,0,1-9.7-5.637,12.717,12.717,0,0,1,0-11.917,10.932,10.932,0,0,1,9.7-5.637,11.874,11.874,0,0,1,2.8.329l.895.218-.672.63a5.59,5.59,0,0,0-1.556,2.561l-.117.414-.427-.054a7.342,7.342,0,0,0-.927-.059,6.477,6.477,0,0,0-3.476.973,6.973,6.973,0,0,0-2.476,2.649,8.956,8.956,0,0,0,0,7.851,6.938,6.938,0,0,0,2.475,2.668,6.739,6.739,0,0,0,6.972,0,7,7,0,0,0,2.456-2.67,8.229,8.229,0,0,0,.907-3.916c0-.073,0-.145-.005-.217l-.017-.565.468-.041a5.577,5.577,0,0,0,1.133-.219,5.519,5.519,0,0,0,1.806-.947l.7-.549.1.882a14.16,14.16,0,0,1,.1,1.655,12.079,12.079,0,0,1-1.46,5.956,10.807,10.807,0,0,1-9.683,5.64Zm0-22.194a9.936,9.936,0,0,0-8.834,5.131,11.723,11.723,0,0,0,0,10.935,9.937,9.937,0,0,0,8.834,5.131,9.811,9.811,0,0,0,8.812-5.128,11.094,11.094,0,0,0,1.334-5.47c0-.235-.006-.47-.018-.7a6.454,6.454,0,0,1-1.4.616h0a6.531,6.531,0,0,1-.873.2,9.163,9.163,0,0,1-1.024,4.273,7.982,7.982,0,0,1-2.8,3.044,7.735,7.735,0,0,1-8.03,0,7.922,7.922,0,0,1-2.828-3.045,9.947,9.947,0,0,1,0-8.8,7.96,7.96,0,0,1,2.827-3.022,7.461,7.461,0,0,1,4-1.123c.213,0,.426.008.638.024a6.6,6.6,0,0,1,1.078-1.937A11.111,11.111,0,0,0,1485.689,255.832Z" transform="translate(-1474.504 -254.835)" fill="#212441"/></g></g></svg>